<svg width="715" height="665" viewBox="0 0 715 665" fill="none" xmlns="http://www.w3.org/2000/svg">
<path d="M0 177.51C0 154.098 18.9839 135.119 42.4018 135.119H672.511C695.93 135.119 714.913 154.098 714.913 177.51V622.609C714.913 646.022 695.93 665 672.511 665H42.4018C18.9839 665 0 646.022 0 622.609V177.51Z" fill="#CBE2F7"/>
<path fill-rule="evenodd" clip-rule="evenodd" d="M672.511 152.075H42.4018C28.3512 152.075 16.9607 163.463 16.9607 177.51V622.609C16.9607 636.656 28.3512 648.043 42.4018 648.043H672.511C686.562 648.043 697.952 636.656 697.952 622.609V177.51C697.952 163.463 686.562 152.075 672.511 152.075ZM42.4018 135.119C18.9839 135.119 0 154.098 0 177.51V622.609C0 646.022 18.9839 665 42.4018 665H672.511C695.93 665 714.913 646.022 714.913 622.609V177.51C714.913 154.098 695.93 135.119 672.511 135.119H42.4018Z" fill="#509EE3"/>
<path d="M86.3936 234.491C86.3936 220.444 97.784 209.057 111.835 209.057H603.3C617.351 209.057 628.741 220.444 628.741 234.491V504.015C628.741 518.062 617.351 529.449 603.3 529.449H111.835C97.784 529.449 86.3936 518.062 86.3936 504.015V234.491Z" fill="#EEF6FD"/>
<path fill-rule="evenodd" clip-rule="evenodd" d="M77.9133 234.49C77.9133 215.761 93.1003 200.578 111.835 200.578H603.3C622.034 200.578 637.222 215.761 637.222 234.49V504.014C637.222 522.743 622.034 537.927 603.3 537.927H111.835C93.1006 537.927 77.9133 522.743 77.9133 504.014V234.49ZM111.835 217.534C102.468 217.534 94.874 225.126 94.874 234.49V504.014C94.874 513.38 102.468 520.97 111.835 520.97H603.3C612.669 520.97 620.261 513.38 620.261 504.014V234.49C620.261 225.126 612.669 217.534 603.3 217.534H111.835Z" fill="#509EE3"/>
<path d="M350.493 400.59H362.819C362.819 422.392 349.897 437.557 325.839 437.557C301.784 437.557 288.862 422.392 288.862 400.59H301.188C301.188 412.912 307.352 425.235 325.839 425.235C344.329 425.235 350.493 412.912 350.493 400.59Z" fill="#509EE3"/>
<path d="M413.831 400.59H426.156C426.156 422.392 413.234 437.557 389.177 437.557C365.122 437.557 352.2 422.392 352.2 400.59H364.525C364.525 412.912 370.69 425.235 389.177 425.235C407.667 425.235 413.831 412.912 413.831 400.59Z" fill="#509EE3"/>
<path d="M255.767 350.77C267.68 350.77 277.337 341.115 277.337 329.205C277.337 317.295 267.68 307.64 255.767 307.64C243.853 307.64 234.196 317.295 234.196 329.205C234.196 341.115 243.853 350.77 255.767 350.77Z" fill="#509EE3"/>
<path d="M452.984 350.77C464.897 350.77 474.554 341.115 474.554 329.205C474.554 317.295 464.897 307.64 452.984 307.64C441.07 307.64 431.413 317.295 431.413 329.205C431.413 341.115 441.07 350.77 452.984 350.77Z" fill="#509EE3"/>
<path d="M560.838 593.183C560.838 606.795 549.8 617.828 536.186 617.828C522.57 617.828 511.532 606.795 511.532 593.183C511.532 579.573 522.57 568.538 536.186 568.538C549.8 568.538 560.838 579.573 560.838 593.183Z" fill="#CBE2F7"/>
<path fill-rule="evenodd" clip-rule="evenodd" d="M536.186 607.23C543.946 607.23 550.237 600.94 550.237 593.183C550.237 585.425 543.946 579.136 536.186 579.136C528.424 579.136 522.133 585.425 522.133 593.183C522.133 600.94 528.424 607.23 536.186 607.23ZM536.186 617.828C549.8 617.828 560.838 606.795 560.838 593.183C560.838 579.573 549.8 568.538 536.186 568.538C522.57 568.538 511.532 579.573 511.532 593.183C511.532 606.795 522.57 617.828 536.186 617.828Z" fill="#509EE3"/>
<path d="M628.63 593.183C628.63 606.795 617.595 617.828 603.979 617.828C590.363 617.828 579.328 606.795 579.328 593.183C579.328 579.573 590.363 568.538 603.979 568.538C617.595 568.538 628.63 579.573 628.63 593.183Z" fill="#CBE2F7"/>
<path fill-rule="evenodd" clip-rule="evenodd" d="M603.979 607.23C611.738 607.23 618.03 600.94 618.03 593.183C618.03 585.425 611.738 579.136 603.979 579.136C596.219 579.136 589.928 585.425 589.928 593.183C589.928 600.94 596.219 607.23 603.979 607.23ZM603.979 617.828C617.595 617.828 628.63 606.795 628.63 593.183C628.63 579.573 617.595 568.538 603.979 568.538C590.363 568.538 579.328 579.573 579.328 593.183C579.328 606.795 590.363 617.828 603.979 617.828Z" fill="#509EE3"/>
<path d="M462.699 381.969L579.834 347.792" stroke="#509EE3" stroke-width="16"/>
<path d="M464.914 403.057L582.049 425.047" stroke="#509EE3" stroke-width="16"/>
<path d="M138.537 347.854L241.361 382.561" stroke="#509EE3" stroke-width="16"/>
<path d="M136.036 425.065L238.86 403.604" stroke="#509EE3" stroke-width="16"/>
<path d="M351.153 383.377L363.643 383.133L357.603 393.768L351.153 383.377Z" fill="#509EE3" stroke="#509EE3" stroke-width="29"/>
<path d="M113.928 8.7212C115.701 8.43798 117.508 8.43798 119.281 8.7212C121.998 9.15523 125.37 11.0671 130.63 18.1075C135.884 25.14 141.793 35.5586 150.197 50.4257L170.518 86.3739C178.695 100.838 184.404 110.971 187.631 118.883C190.854 126.782 190.781 130.587 189.788 133.132C189.145 134.783 188.246 136.322 187.126 137.695C185.398 139.811 182.12 141.746 173.656 142.828C165.178 143.912 153.545 143.928 136.926 143.928H96.2835C79.6649 143.928 68.0315 143.912 59.554 142.828C51.0893 141.746 47.8114 139.811 46.0838 137.695C44.9633 136.322 44.0649 134.783 43.4212 133.132C42.4285 130.587 42.3559 126.782 45.5781 118.883C48.8054 110.971 54.5148 100.838 62.6915 86.3736L83.0125 50.4257C91.4171 35.5586 97.3258 25.14 102.58 18.1075C107.84 11.0672 111.212 9.15523 113.928 8.7212Z" fill="#EEF6FD" stroke="#509EE3" stroke-width="15" stroke-linejoin="round"/>
<path d="M601.284 8.7212C603.057 8.43798 604.864 8.43798 606.637 8.7212C609.353 9.15523 612.727 11.0671 617.985 18.1075C623.24 25.14 629.147 35.5586 637.553 50.4257L657.874 86.3739C666.05 100.838 671.761 110.971 674.986 118.883C678.209 126.782 678.137 130.587 677.143 133.132C676.499 134.783 675.601 136.322 674.483 137.695C672.755 139.811 669.477 141.746 661.012 142.828C652.534 143.912 640.9 143.928 624.281 143.928H583.639C567.021 143.928 555.387 143.912 546.909 142.828C538.444 141.746 535.166 139.811 533.438 137.695C532.32 136.322 531.422 134.783 530.778 133.132C529.784 130.587 529.712 126.782 532.935 118.883C536.16 110.971 541.871 100.838 550.047 86.3736L570.368 50.4257C578.774 35.5586 584.681 25.14 589.936 18.1075C595.197 11.0672 598.567 9.15523 601.284 8.7212Z" fill="#EEF6FD" stroke="#509EE3" stroke-width="15" stroke-linejoin="round"/>
</svg>
